# xmcd
#
# Track frame offsets: 
#        150
#        8018
#        31269
#        50720
#        56164
#        75030
#        100063
#        119582
#        136092
#        161865
#        175260
#        196985
#        233796
#
# Disc length: 3343 seconds
#
# Revision: 0
# Processed by: cddbd v1.5.2PL0 Copyright (c) Steve Scherf et al.
# Submitted via: ExactAudioCopy v1.0b3
#
DISCID=a10d0d0d
DTITLE=Mägo De Oz - La Leyenda De La Mancha
DYEAR=1997
DGENRE=Metal
TTITLE0=En Un Lugar...
TTITLE1=El Santo Grial
TTITLE2=La Leyenda De La Mancha
TTITLE3=Noche Toledana
TTITLE4=Molinos De Viento
TTITLE5=Dime Con Quién Andas
TTITLE6=Maritormes
TTITLE7=El Bálsamo de Fierabrás
TTITLE8=El Pacto
TTITLE9=La Insula De Barataria
TTITLE10=El Templo del Adios
TTITLE11=Réquiem
TTITLE12=Ancha Es Castilla (Epilogo)
EXTD=
EXTT0=
EXTT1=
EXTT2=
EXTT3=
EXTT4=
EXTT5=
EXTT6=
EXTT7=
EXTT8=
EXTT9=
EXTT10=
EXTT11=
EXTT12=
PLAYORDER=
